<svg width="99" height="55" viewBox="0 0 99 55" fill="none" xmlns="http://www.w3.org/2000/svg">
<mask id="path-1-outside-1_220_2570" maskUnits="userSpaceOnUse" x="-0.874475" y="-0.246496" width="100.164" height="56.0916" fill="black">
<rect fill="white" x="-0.874475" y="-0.246496" width="100.164" height="56.0916"/>
<path d="M49.4793 38.0054H1.00164V32.6647H49.4793V38.0054ZM28.351 53.9984H21.9245V34.4547H28.351V53.9984ZM44.2265 28.263H7.19339V23.0689H44.2265V28.263ZM43.6396 8.45522H13.6199V24.3895H7.19339V3.29053H43.6396V8.45522ZM42.4659 18.1977H11.8005V13.1504H42.4659V18.1977ZM93.0563 14.2655H78.648V9.07146H93.0563V14.2655ZM93.2324 24.9177H78.648V19.5769H93.2324V24.9177ZM97.3993 32.1952H90.8848V1.00164H97.3993V32.1952ZM80.1739 28.9966H55.2895V4.96319H80.1739V28.9966ZM61.7747 23.8026H73.7768V10.1572H61.7747V23.8026ZM79.4697 33.6331C83.2258 33.6331 86.4537 34.0341 89.1534 34.8362C91.8727 35.6187 93.9562 36.7827 95.4039 38.3282C96.8516 39.8542 97.5754 41.6931 97.5754 43.8451C97.5754 45.9579 96.8516 47.7773 95.4039 49.3032C93.9562 50.8291 91.8727 51.9834 89.1534 52.7659C86.4537 53.568 83.2258 53.969 79.4697 53.969C75.7526 53.969 72.5345 53.568 69.8152 52.7659C67.1155 51.9834 65.032 50.8291 63.5648 49.3032C62.1171 47.7773 61.3933 45.9579 61.3933 43.8451C61.3933 41.6931 62.1171 39.8542 63.5648 38.3282C65.032 36.7827 67.1155 35.6187 69.8152 34.8362C72.5345 34.0341 75.7526 33.6331 79.4697 33.6331ZM79.4697 38.6217C76.9851 38.6217 74.8821 38.8271 73.1605 39.2379C71.439 39.6292 70.1282 40.2161 69.2283 40.9986C68.3284 41.7616 67.8785 42.7104 67.8785 43.8451C67.8785 44.9015 68.3284 45.8112 69.2283 46.5741C70.1282 47.3371 71.4487 47.9338 73.1899 48.3642C74.931 48.775 77.0243 48.9804 79.4697 48.9804C81.9542 48.9804 84.0572 48.775 85.7788 48.3642C87.5199 47.9338 88.8307 47.3469 89.711 46.6035C90.6109 45.8405 91.0609 44.921 91.0609 43.8451C91.0609 42.7104 90.6109 41.7616 89.711 40.9986C88.8307 40.2161 87.5199 39.6292 85.7788 39.2379C84.0572 38.8271 81.9542 38.6217 79.4697 38.6217Z"/>
</mask>
<path d="M49.4793 38.0054V39.0071H50.4809V38.0054H49.4793ZM1.00164 38.0054H0V39.0071H1.00164V38.0054ZM1.00164 32.6647V31.6631H0V32.6647H1.00164ZM49.4793 32.6647H50.4809V31.6631H49.4793V32.6647ZM28.351 53.9984V55H29.3526V53.9984H28.351ZM21.9245 53.9984H20.9228V55H21.9245V53.9984ZM21.9245 34.4547V33.4531H20.9228V34.4547H21.9245ZM28.351 34.4547H29.3526V33.4531H28.351V34.4547ZM44.2265 28.263V29.2646H45.2282V28.263H44.2265ZM7.19339 28.263H6.19175V29.2646H7.19339V28.263ZM7.19339 23.0689V22.0673H6.19175V23.0689H7.19339ZM44.2265 23.0689H45.2282V22.0673H44.2265V23.0689ZM43.6396 8.45522V9.45685H44.6413V8.45522H43.6396ZM13.6199 8.45522V7.45358H12.6183V8.45522H13.6199ZM13.6199 24.3895V25.3911H14.6215V24.3895H13.6199ZM7.19339 24.3895H6.19175V25.3911H7.19339V24.3895ZM7.19339 3.29053V2.2889H6.19175V3.29053H7.19339ZM43.6396 3.29053H44.6413V2.2889H43.6396V3.29053ZM42.4659 18.1977V19.1993H43.4675V18.1977H42.4659ZM11.8005 18.1977H10.7989V19.1993H11.8005V18.1977ZM11.8005 13.1504V12.1488H10.7989V13.1504H11.8005ZM42.4659 13.1504H43.4675V12.1488H42.4659V13.1504ZM49.4793 38.0054V37.0038H1.00164V38.0054V39.0071H49.4793V38.0054ZM1.00164 38.0054H2.00327V32.6647H1.00164H0V38.0054H1.00164ZM1.00164 32.6647V33.6663H49.4793V32.6647V31.6631H1.00164V32.6647ZM49.4793 32.6647H48.4776V38.0054H49.4793H50.4809V32.6647H49.4793ZM28.351 53.9984V52.9967H21.9245V53.9984V55H28.351V53.9984ZM21.9245 53.9984H22.9261V34.4547H21.9245H20.9228V53.9984H21.9245ZM21.9245 34.4547V35.4564H28.351V34.4547V33.4531H21.9245V34.4547ZM28.351 34.4547H27.3494V53.9984H28.351H29.3526V34.4547H28.351ZM44.2265 28.263V27.2613H7.19339V28.263V29.2646H44.2265V28.263ZM7.19339 28.263H8.19503V23.0689H7.19339H6.19175V28.263H7.19339ZM7.19339 23.0689V24.0706H44.2265V23.0689V22.0673H7.19339V23.0689ZM44.2265 23.0689H43.2249V28.263H44.2265H45.2282V23.0689H44.2265ZM43.6396 8.45522V7.45358H13.6199V8.45522V9.45685H43.6396V8.45522ZM13.6199 8.45522H12.6183V24.3895H13.6199H14.6215V8.45522H13.6199ZM13.6199 24.3895V23.3878H7.19339V24.3895V25.3911H13.6199V24.3895ZM7.19339 24.3895H8.19503V3.29053H7.19339H6.19175V24.3895H7.19339ZM7.19339 3.29053V4.29217H43.6396V3.29053V2.2889H7.19339V3.29053ZM43.6396 3.29053H42.638V8.45522H43.6396H44.6413V3.29053H43.6396ZM42.4659 18.1977V17.1961H11.8005V18.1977V19.1993H42.4659V18.1977ZM11.8005 18.1977H12.8022V13.1504H11.8005H10.7989V18.1977H11.8005ZM11.8005 13.1504V14.152H42.4659V13.1504V12.1488H11.8005V13.1504ZM42.4659 13.1504H41.4642V18.1977H42.4659H43.4675V13.1504H42.4659ZM93.0563 14.2655V15.2671H94.0579V14.2655H93.0563ZM78.648 14.2655H77.6464V15.2671H78.648V14.2655ZM78.648 9.07146V8.06982H77.6464V9.07146H78.648ZM93.0563 9.07146H94.0579V8.06982H93.0563V9.07146ZM93.2324 24.9177V25.9193H94.234V24.9177H93.2324ZM78.648 24.9177H77.6464V25.9193H78.648V24.9177ZM78.648 19.5769V18.5753H77.6464V19.5769H78.648ZM93.2324 19.5769H94.234V18.5753H93.2324V19.5769ZM97.3993 32.1952V33.1968H98.401V32.1952H97.3993ZM90.8848 32.1952H89.8832V33.1968H90.8848V32.1952ZM90.8848 1.00164V0H89.8832V1.00164H90.8848ZM97.3993 1.00164H98.401V0H97.3993V1.00164ZM80.1739 28.9966V29.9982H81.1756V28.9966H80.1739ZM55.2895 28.9966H54.2879V29.9982H55.2895V28.9966ZM55.2895 4.96319V3.96155H54.2879V4.96319H55.2895ZM80.1739 4.96319H81.1756V3.96155H80.1739V4.96319ZM61.7747 23.8026H60.7731V24.8042H61.7747V23.8026ZM73.7768 23.8026V24.8042H74.7784V23.8026H73.7768ZM73.7768 10.1572H74.7784V9.15558H73.7768V10.1572ZM61.7747 10.1572V9.15558H60.7731V10.1572H61.7747ZM89.1534 34.8362L88.8682 35.7964L88.8764 35.7988L89.1534 34.8362ZM95.4039 38.3282L94.6729 39.013L94.6772 39.0176L95.4039 38.3282ZM89.1534 52.7659L88.8764 51.8033L88.8682 51.8057L89.1534 52.7659ZM69.8152 52.7659L70.0986 51.8052L70.0941 51.8038L69.8152 52.7659ZM63.5648 49.3032L62.8381 49.9926L62.8428 49.9974L63.5648 49.3032ZM63.5648 38.3282L62.8384 37.6386L62.8381 37.6388L63.5648 38.3282ZM69.8152 34.8362L70.0941 35.7983L70.0986 35.7969L69.8152 34.8362ZM73.1605 39.2379L73.3825 40.2147L73.393 40.2122L73.1605 39.2379ZM69.2283 40.9986L69.8761 41.7627L69.8856 41.7545L69.2283 40.9986ZM73.1899 48.3642L72.9495 49.3366L72.9598 49.339L73.1899 48.3642ZM85.7788 48.3642L86.0113 49.3385L86.0192 49.3365L85.7788 48.3642ZM89.711 46.6035L90.3572 47.3688L90.3587 47.3675L89.711 46.6035ZM89.711 40.9986L89.0455 41.7472L89.0543 41.755L89.0633 41.7626L89.711 40.9986ZM85.7788 39.2379L85.5463 40.2123L85.5592 40.2152L85.7788 39.2379ZM93.0563 14.2655V13.2639H78.648V14.2655V15.2671H93.0563V14.2655ZM78.648 14.2655H79.6496V9.07146H78.648H77.6464V14.2655H78.648ZM78.648 9.07146V10.0731H93.0563V9.07146V8.06982H78.648V9.07146ZM93.0563 9.07146H92.0547V14.2655H93.0563H94.0579V9.07146H93.0563ZM93.2324 24.9177V23.916H78.648V24.9177V25.9193H93.2324V24.9177ZM78.648 24.9177H79.6496V19.5769H78.648H77.6464V24.9177H78.648ZM78.648 19.5769V20.5785H93.2324V19.5769V18.5753H78.648V19.5769ZM93.2324 19.5769H92.2307V24.9177H93.2324H94.234V19.5769H93.2324ZM97.3993 32.1952V31.1935H90.8848V32.1952V33.1968H97.3993V32.1952ZM90.8848 32.1952H91.8864V1.00164H90.8848H89.8832V32.1952H90.8848ZM90.8848 1.00164V2.00327H97.3993V1.00164V0H90.8848V1.00164ZM97.3993 1.00164H96.3977V32.1952H97.3993H98.401V1.00164H97.3993ZM80.1739 28.9966V27.9949H55.2895V28.9966V29.9982H80.1739V28.9966ZM55.2895 28.9966H56.2912V4.96319H55.2895H54.2879V28.9966H55.2895ZM55.2895 4.96319V5.96482H80.1739V4.96319V3.96155H55.2895V4.96319ZM80.1739 4.96319H79.1723V28.9966H80.1739H81.1756V4.96319H80.1739ZM61.7747 23.8026V24.8042H73.7768V23.8026V22.8009H61.7747V23.8026ZM73.7768 23.8026H74.7784V10.1572H73.7768H72.7751V23.8026H73.7768ZM73.7768 10.1572V9.15558H61.7747V10.1572V11.1589H73.7768V10.1572ZM61.7747 10.1572H60.7731V23.8026H61.7747H62.7764V10.1572H61.7747ZM79.4697 33.6331V34.6347C83.1593 34.6347 86.286 35.0292 88.8682 35.7964L89.1534 34.8362L89.4387 33.876C86.6214 33.039 83.2923 32.6314 79.4697 32.6314V33.6331ZM89.1534 34.8362L88.8764 35.7988C91.4787 36.5476 93.3835 37.6365 94.6729 39.013L95.4039 38.3282L96.1349 37.6435C94.5289 35.9289 92.2668 34.6898 89.4304 33.8736L89.1534 34.8362ZM95.4039 38.3282L94.6772 39.0176C95.9439 40.3527 96.5738 41.9431 96.5738 43.8451H97.5754H98.577C98.577 41.4432 97.7593 39.3556 96.1305 37.6388L95.4039 38.3282ZM97.5754 43.8451H96.5738C96.5738 45.7026 95.9475 47.2749 94.6772 48.6138L95.4039 49.3032L96.1305 49.9926C97.7557 48.2796 98.577 46.2131 98.577 43.8451H97.5754ZM95.4039 49.3032L94.6772 48.6138C93.3878 49.973 91.4814 51.0537 88.8764 51.8033L89.1534 52.7659L89.4304 53.7285C92.2641 52.913 94.5247 51.6853 96.1305 49.9926L95.4039 49.3032ZM89.1534 52.7659L88.8682 51.8057C86.286 52.5729 83.1593 52.9674 79.4697 52.9674V53.969V54.9707C83.2923 54.9707 86.6214 54.5631 89.4387 53.726L89.1534 52.7659ZM79.4697 53.969V52.9674C75.8206 52.9674 72.7024 52.5732 70.0986 51.8052L69.8152 52.7659L69.5318 53.7266C72.3666 54.5627 75.6847 54.9707 79.4697 54.9707V53.969ZM69.8152 52.7659L70.0941 51.8038C67.5095 51.0547 65.5988 49.9734 64.2868 48.609L63.5648 49.3032L62.8428 49.9974C64.4652 51.6848 66.7215 52.912 69.5364 53.7279L69.8152 52.7659ZM63.5648 49.3032L64.2914 48.6138C63.0212 47.2749 62.3949 45.7026 62.3949 43.8451H61.3933H60.3916C60.3916 46.2131 61.213 48.2796 62.8381 49.9926L63.5648 49.3032ZM61.3933 43.8451H62.3949C62.3949 41.9431 63.0248 40.3527 64.2914 39.0176L63.5648 38.3282L62.8381 37.6388C61.2094 39.3556 60.3916 41.4432 60.3916 43.8451H61.3933ZM63.5648 38.3282L64.2912 39.0179C65.603 37.6361 67.5122 36.5466 70.0941 35.7982L69.8152 34.8362L69.5364 33.8742C66.7188 34.6908 64.461 35.9294 62.8384 37.6386L63.5648 38.3282ZM69.8152 34.8362L70.0986 35.7969C72.7024 35.0289 75.8206 34.6347 79.4697 34.6347V33.6331V32.6314C75.6847 32.6314 72.3666 33.0393 69.5318 33.8755L69.8152 34.8362ZM79.4697 38.6217V37.62C76.9356 37.62 74.7494 37.829 72.928 38.2636L73.1605 39.2379L73.393 40.2122C75.0147 39.8252 77.0346 39.6233 79.4697 39.6233V38.6217ZM73.1605 39.2379L72.9385 38.2612C71.1275 38.6728 69.6412 39.3122 68.5711 40.2428L69.2283 40.9986L69.8856 41.7545C70.6152 41.12 71.7505 40.5856 73.3825 40.2147L73.1605 39.2379ZM69.2283 40.9986L68.5806 40.2346C67.4664 41.1792 66.8768 42.4029 66.8768 43.8451H67.8785H68.8801C68.8801 43.0179 69.1904 42.344 69.8761 41.7626L69.2283 40.9986ZM67.8785 43.8451H66.8768C66.8768 45.2323 67.4857 46.4098 68.5806 47.3381L69.2283 46.5741L69.8761 45.8101C69.1712 45.2125 68.8801 44.5706 68.8801 43.8451H67.8785ZM69.2283 46.5741L68.5806 47.3381C69.6438 48.2395 71.1294 48.8866 72.9495 49.3365L73.1899 48.3642L73.4302 47.3918C71.7681 46.9809 70.6127 46.4346 69.8761 45.8101L69.2283 46.5741ZM73.1899 48.3642L72.9598 49.339C74.7981 49.7728 76.9729 49.982 79.4697 49.982V48.9804V47.9788C77.0756 47.9788 75.0639 47.7772 73.4199 47.3893L73.1899 48.3642ZM79.4697 48.9804V49.982C82.0037 49.982 84.1899 49.7731 86.0113 49.3384L85.7788 48.3642L85.5463 47.3899C83.9246 47.7769 81.9047 47.9788 79.4697 47.9788V48.9804ZM85.7788 48.3642L86.0192 49.3365C87.8347 48.8877 89.3119 48.2515 90.3572 47.3688L89.711 46.6035L89.0648 45.8382C88.3494 46.4423 87.2051 46.9798 85.5384 47.3918L85.7788 48.3642ZM89.711 46.6035L90.3587 47.3675C91.4586 46.435 92.0625 45.246 92.0625 43.8451H91.0609H90.0592C90.0592 44.5961 89.7632 45.2461 89.0633 45.8395L89.711 46.6035ZM91.0609 43.8451H92.0625C92.0625 42.4029 91.4729 41.1792 90.3587 40.2346L89.711 40.9986L89.0633 41.7626C89.7489 42.344 90.0592 43.0179 90.0592 43.8451H91.0609ZM89.711 40.9986L90.3765 40.25C89.3204 39.3112 87.8267 38.6715 85.9984 38.2607L85.7788 39.2379L85.5592 40.2152C87.2131 40.5869 88.3409 41.1209 89.0455 41.7472L89.711 40.9986ZM85.7788 39.2379L86.0113 38.2636C84.1899 37.829 82.0037 37.62 79.4697 37.62V38.6217V39.6233C81.9047 39.6233 83.9246 39.8252 85.5463 40.2122L85.7788 39.2379Z" fill="white" mask="url(#path-1-outside-1_220_2570)"/>
</svg>
