<svg width="94" height="94" viewBox="0 0 94 94" fill="none" xmlns="http://www.w3.org/2000/svg">
<path d="M47 0C52.6181 0 57.5 11.5 58.5 17L65.5 45.9264L45.5 9C42.9563 10.2726 62.781 91.3802 60 92.179L18 10.0109C25.9876 3.73977 36.0571 0 47 0Z" fill="#003049"/>
<path d="M25 53L60 92.1772C55.8714 93.363 51.5099 93.9982 47 93.9982C21.0426 93.9982 0 72.9556 0 46.9982C0 31.9837 14.0404 61.6045 25 53Z" fill="#780000"/>
<path d="M66.75 67.5L89.7759 27.5C92.4882 33.4401 93.9996 40.0437 93.9996 47.0003C93.9996 65.41 83.4151 81.3475 67.9996 89.0594L66.75 67.5Z" fill="#669BBC"/>
<path d="M83.5 74L63 2.79395C74.8964 7.10056 81.7822 34.499 87 45.9264L83.5 74Z" fill="#FDF0D5"/>
</svg>
